<svg width="103" height="72" viewBox="0 0 103 72" fill="none" xmlns="http://www.w3.org/2000/svg">
<g clip-path="url(#clip0_1526_5091)">
<path d="M42.7529 7.85498C46.0663 4.39861 50.6792 2.25487 55.7809 2.25487C62.5627 2.25487 68.4795 6.04092 71.6305 11.6614C74.3687 10.4366 77.3996 9.75521 80.5885 9.75521C92.8202 9.75521 102.737 19.7699 102.737 32.123C102.737 44.4775 92.8202 54.4922 80.5885 54.4922C79.1234 54.4931 77.6619 54.3473 76.2258 54.057C73.4511 59.0122 68.1635 62.3603 62.0944 62.3603C59.5537 62.3603 57.1507 61.7728 55.0111 60.7281C52.1982 67.3522 45.6448 71.9969 38.0068 71.9969C30.0527 71.9969 23.2739 66.9581 20.6718 59.8914C19.5347 60.1332 18.3566 60.2592 17.1477 60.2592C7.6775 60.2593 0 52.4937 0 42.9128C0 36.4923 3.44945 30.8863 8.57457 27.8871C7.51943 25.4564 6.93253 22.7736 6.93253 19.953C6.93253 8.93472 15.8671 0.00292969 26.8872 0.00292969C33.3573 0.00292969 39.1074 3.08278 42.7529 7.85498Z" fill="#00A1E0"/>
<path d="M14.8806 37.3373C14.8163 37.5059 14.9041 37.5411 14.9245 37.5703C15.1177 37.711 15.3139 37.8122 15.5114 37.9249C16.5593 38.4816 17.5487 38.6442 18.5834 38.6442C20.6908 38.6442 21.9991 37.5219 21.9991 35.7153V35.6802C21.9991 34.0098 20.5225 33.4032 19.1365 32.9651L18.9566 32.9065C17.9116 32.5666 17.0101 32.2736 17.0101 31.5849V31.5484C17.0101 30.9594 17.537 30.5256 18.3536 30.5256C19.261 30.5256 20.3381 30.8275 21.0318 31.2113C21.0318 31.2113 21.2352 31.3432 21.3099 31.1454C21.3508 31.0399 21.7021 30.0934 21.7387 29.9908C21.7782 29.8794 21.7079 29.7974 21.6363 29.7534C20.8445 29.2713 19.7498 28.9417 18.6171 28.9417L18.4064 28.9431C16.4775 28.9431 15.1311 30.1094 15.1311 31.7812V31.8164C15.1311 33.579 16.6166 34.1504 18.0084 34.549L18.2323 34.6178C19.2465 34.9299 20.1202 35.198 20.1202 35.9131V35.9483C20.1202 36.6018 19.5524 37.0882 18.6362 37.0882C18.2806 37.0882 17.1464 37.0809 15.9215 36.3057C15.7736 36.2192 15.6873 36.1563 15.5732 36.0874C15.5132 36.0493 15.3624 35.9833 15.2966 36.1826L14.8806 37.3373ZM45.7323 37.3373C45.6679 37.5059 45.7558 37.5411 45.7762 37.5703C45.9694 37.711 46.1656 37.8122 46.363 37.9249C47.4109 38.4816 48.4004 38.6442 49.435 38.6442C51.5424 38.6442 52.8508 37.5219 52.8508 35.7153V35.6802C52.8508 34.0098 51.3741 33.4032 49.9881 32.9651L49.8082 32.9065C48.7632 32.5666 47.8616 32.2736 47.8616 31.5849V31.5484C47.8616 30.9594 48.3885 30.5256 49.2051 30.5256C50.1125 30.5256 51.1896 30.8275 51.8834 31.2113C51.8834 31.2113 52.0868 31.3432 52.1613 31.1454C52.2023 31.0399 52.5536 30.0934 52.5902 29.9908C52.6298 29.8794 52.5594 29.7974 52.4878 29.7534C51.696 29.2713 50.6013 28.9417 49.4686 28.9417L49.2578 28.9431C47.3289 28.9431 45.9825 30.1094 45.9825 31.7812V31.8164C45.9825 33.579 47.468 34.1504 48.8598 34.549L49.0837 34.6178C50.0979 34.9299 50.9731 35.198 50.9731 35.9131V35.9483C50.9731 36.6018 50.4038 37.0882 49.4876 37.0882C49.1321 37.0882 47.9979 37.0809 46.773 36.3057C46.6251 36.2192 46.5374 36.1592 46.4262 36.0874C46.388 36.0625 46.2095 35.9936 46.148 36.1826L45.7323 37.3373ZM66.794 33.7986C66.794 34.8198 66.6037 35.6242 66.2291 36.1927C65.8588 36.7554 65.2983 37.0294 64.5169 37.0294C63.734 37.0294 63.1764 36.7568 62.8119 36.1927C62.443 35.6257 62.2559 34.8198 62.2559 33.7986C62.2559 32.7789 62.443 31.9759 62.8119 31.4132C63.1764 30.8565 63.734 30.5854 64.5169 30.5854C65.2984 30.5854 65.8589 30.8565 66.2306 31.4132C66.6038 31.9758 66.794 32.7788 66.794 33.7986ZM68.5532 31.9056C68.3804 31.3209 68.1112 30.8051 67.7527 30.3759C67.3941 29.9451 66.9404 29.5994 66.4018 29.3473C65.8646 29.0968 65.2296 28.9693 64.5169 28.9693C63.8027 28.9693 63.1676 29.0968 62.6304 29.3473C62.0919 29.5994 61.6382 29.9452 61.2782 30.3759C60.9211 30.8067 60.6518 31.3224 60.4777 31.9056C60.3065 32.4872 60.2201 33.1231 60.2201 33.7986C60.2201 34.4741 60.3065 35.1114 60.4777 35.6916C60.6518 36.2748 60.9197 36.7906 61.2797 37.2213C61.6382 37.6521 62.0934 37.9964 62.6305 38.241C63.169 38.4857 63.8027 38.6102 64.517 38.6102C65.2297 38.6102 65.8634 38.4857 66.4019 38.241C66.939 37.9964 67.3941 37.652 67.7528 37.2213C68.1113 36.7919 68.3805 36.2762 68.5533 35.6916C68.726 35.11 68.8123 34.4726 68.8123 33.7986C68.8123 33.1246 68.7258 32.4872 68.5532 31.9056ZM82.9987 36.7566C82.9402 36.5852 82.7749 36.6497 82.7749 36.6497C82.5188 36.7479 82.2465 36.8387 81.9568 36.8841C81.6625 36.9294 81.3391 36.953 80.9922 36.953C80.1406 36.953 79.4645 36.6995 78.9801 36.1984C78.4942 35.6973 78.2219 34.8871 78.2248 33.7911C78.2278 32.7933 78.4677 32.043 78.8996 31.4717C79.3284 30.9032 79.9811 30.6116 80.8519 30.6116C81.5778 30.6116 82.131 30.6951 82.7104 30.8782C82.7104 30.8782 82.8494 30.9383 82.9152 30.7566C83.0689 30.3287 83.183 30.0225 83.347 29.5522C83.3939 29.4189 83.2797 29.3617 83.2387 29.3456C83.0104 29.2562 82.4718 29.1112 82.065 29.0497C81.6845 28.9911 81.2396 28.9603 80.7449 28.9603C80.0057 28.9603 79.3472 29.0863 78.7839 29.3384C78.2218 29.5889 77.7448 29.9346 77.3672 30.3655C76.9896 30.7963 76.7028 31.3119 76.5111 31.8951C76.3209 32.4767 76.2243 33.1156 76.2243 33.7911C76.2243 35.2519 76.618 36.4327 77.3951 37.2973C78.1736 38.1647 79.343 38.6057 80.868 38.6057C81.7695 38.6057 82.6944 38.4226 83.3589 38.1603C83.3589 38.1603 83.4862 38.0987 83.4306 37.9509L82.9987 36.7566ZM86.0766 32.8203C86.16 32.2533 86.3167 31.7814 86.5581 31.4137C86.9226 30.8555 87.4786 30.5493 88.2602 30.5493C89.0418 30.5493 89.5584 30.8569 89.9286 31.4137C90.1745 31.7814 90.2813 32.2739 90.3238 32.8203H86.0766ZM91.9994 31.5733C91.8502 31.0092 91.4798 30.4392 91.2369 30.1784C90.8534 29.7652 90.4789 29.4766 90.1071 29.3154C89.6212 29.1073 89.0387 28.9697 88.4007 28.9697C87.6573 28.9697 86.9826 29.0942 86.4352 29.3521C85.8865 29.61 85.4256 29.9617 85.064 30.3998C84.7024 30.8363 84.4303 31.3565 84.2575 31.947C84.0834 32.5345 83.9956 33.1749 83.9956 33.8502C83.9956 34.5374 84.0864 35.1777 84.2663 35.7535C84.4479 36.3338 84.7376 36.8451 85.1298 37.2684C85.5205 37.6949 86.024 38.029 86.6269 38.2618C87.2256 38.4934 87.9529 38.6135 88.7885 38.612C90.5082 38.6061 91.414 38.2223 91.7872 38.0156C91.8531 37.9791 91.9161 37.9146 91.8369 37.73L91.4476 36.6383C91.3892 36.4758 91.2238 36.5358 91.2238 36.5358C90.7978 36.694 90.1921 36.9783 88.7797 36.9754C87.8563 36.974 87.1713 36.7014 86.7424 36.275C86.302 35.8384 86.0868 35.1966 86.0488 34.2911L92.0037 34.297C92.0037 34.297 92.1602 34.2941 92.1765 34.1417C92.1823 34.0774 92.3814 32.9169 91.9994 31.5733ZM38.3863 32.8203C38.4711 32.2533 38.6263 31.7814 38.8678 31.4137C39.2321 30.8555 39.7883 30.5493 40.5698 30.5493C41.3513 30.5493 41.8679 30.8569 42.2396 31.4137C42.4839 31.7814 42.5908 32.2739 42.6333 32.8203H38.3863ZM44.3075 31.5733C44.1583 31.0092 43.7895 30.4392 43.5466 30.1784C43.1631 29.7652 42.7884 29.4766 42.4168 29.3154C41.9309 29.1073 41.3485 28.9697 40.7104 28.9697C39.9684 28.9697 39.2922 29.0942 38.7449 29.3521C38.1961 29.61 37.7351 29.9617 37.3736 30.3998C37.0121 30.8363 36.7399 31.3565 36.5673 31.947C36.3946 32.5345 36.3053 33.1749 36.3053 33.8502C36.3053 34.5374 36.396 35.1777 36.5761 35.7535C36.7576 36.3338 37.0474 36.8451 37.4395 37.2684C37.8303 37.6949 38.3337 38.029 38.9367 38.2618C39.5353 38.4934 40.2626 38.6135 41.0983 38.612C42.8178 38.6061 43.7238 38.2223 44.097 38.0156C44.1629 37.9791 44.2257 37.9146 44.1467 37.73L43.7589 36.6383C43.6989 36.4758 43.5336 36.5358 43.5336 36.5358C43.1078 36.694 42.5033 36.9783 41.0881 36.9754C40.1661 36.974 39.4812 36.7014 39.0524 36.275C38.6118 35.8384 38.3968 35.1966 38.3586 34.2911L44.3135 34.297C44.3135 34.297 44.4701 34.2941 44.4862 34.1417C44.4919 34.0774 44.6909 32.9169 44.3075 31.5733ZM25.5148 36.724C25.282 36.5378 25.2499 36.491 25.1709 36.3708C25.0537 36.1877 24.9938 35.9269 24.9938 35.5958C24.9938 35.0712 25.1664 34.6946 25.525 34.4412C25.5207 34.4427 26.0373 33.9943 27.2519 34.0104C28.1051 34.0221 28.8675 34.1481 28.8675 34.1481V36.8588H28.869C28.869 36.8588 28.1124 37.0213 27.2607 37.0726C26.0489 37.1459 25.5103 36.7226 25.5148 36.724ZM27.8841 32.535C27.6426 32.5174 27.3294 32.5071 26.9547 32.5071C26.444 32.5071 25.9508 32.5715 25.4883 32.6961C25.023 32.8206 24.6044 33.0156 24.2444 33.2733C23.8849 33.5302 23.5894 33.8666 23.3809 34.2565C23.1702 34.6491 23.0634 35.1122 23.0634 35.6309C23.0634 36.1583 23.1541 36.6169 23.3356 36.9921C23.5171 37.3686 23.779 37.6821 24.1126 37.924C24.4434 38.1657 24.8518 38.3429 25.3258 38.4499C25.7927 38.5569 26.3225 38.611 26.9021 38.611C27.5123 38.611 28.1211 38.5613 28.7109 38.4601C29.2948 38.3604 30.0119 38.2154 30.2109 38.1701C30.3505 38.1364 30.4895 38.1007 30.6281 38.0631C30.7759 38.0265 30.7642 37.8682 30.7642 37.8682L30.7612 32.4162C30.7612 31.2206 30.4422 30.3341 29.8144 29.7847C29.1894 29.2367 28.2689 28.9597 27.0792 28.9597C26.6327 28.9597 25.9142 29.0213 25.4839 29.1077C25.4839 29.1077 24.1829 29.3598 23.6472 29.7788C23.6472 29.7788 23.5302 29.8521 23.5945 30.0162L24.0161 31.1504C24.0687 31.2969 24.2108 31.247 24.2108 31.247C24.2108 31.247 24.2561 31.2294 24.3089 31.1986C25.4548 30.5745 26.9036 30.5935 26.9036 30.5935C27.5476 30.5935 28.0423 30.7224 28.3759 30.9788C28.7007 31.2279 28.8661 31.6044 28.8661 32.3985V32.6506C28.3539 32.5774 27.8841 32.535 27.8841 32.535ZM75.9132 29.463C75.9584 29.3282 75.8634 29.2637 75.8238 29.2491C75.7229 29.2096 75.2166 29.1026 74.8258 29.0777C74.078 29.0323 73.6624 29.1583 73.2906 29.3253C72.9218 29.4923 72.5121 29.7618 72.2837 30.0681V29.3429C72.2837 29.2418 72.212 29.1612 72.1124 29.1612H70.586C70.4866 29.1612 70.4149 29.2417 70.4149 29.3429V38.2351C70.4149 38.3348 70.4968 38.4169 70.5963 38.4169H72.1608C72.2087 38.4166 72.2546 38.3973 72.2883 38.3632C72.322 38.3292 72.3409 38.2831 72.3408 38.2351V33.7927C72.3408 33.1964 72.4067 32.6016 72.5384 32.2279C72.6672 31.8586 72.8428 31.5627 73.0594 31.3502C73.2774 31.1392 73.5247 30.9913 73.7955 30.9078C74.0721 30.8227 74.3779 30.7949 74.5946 30.7949C74.9063 30.7949 75.2488 30.8754 75.2488 30.8754C75.3628 30.8886 75.4273 30.8183 75.4652 30.7143C75.5678 30.4418 75.8576 29.6256 75.9132 29.463Z" fill="white"/>
<path d="M61.2283 25.3419C61.038 25.2833 60.8653 25.2436 60.6399 25.2012C60.4115 25.1602 60.1394 25.1396 59.8307 25.1396C58.7534 25.1396 57.9046 25.4444 57.309 26.0451C56.7163 26.643 56.3138 27.5528 56.1118 28.7499L56.0386 29.1528H54.6864C54.6864 29.1528 54.5225 29.147 54.4873 29.3258L54.2664 30.5668C54.2503 30.6841 54.3016 30.7587 54.4596 30.7587H55.7753L54.4405 38.2195C54.3366 38.8203 54.2165 39.3141 54.0834 39.689C53.9531 40.0584 53.8259 40.3352 53.6678 40.5374C53.5156 40.7309 53.3721 40.8744 53.1233 40.9579C52.9184 41.0268 52.6814 41.059 52.4223 41.059C52.2788 41.059 52.0872 41.0355 51.9452 41.0062C51.8047 40.9783 51.7301 40.9476 51.6232 40.9021C51.6232 40.9021 51.4696 40.8436 51.4081 40.9975C51.3598 41.1249 51.0086 42.0904 50.9661 42.2092C50.9252 42.3278 50.9837 42.4202 51.0582 42.448C51.2339 42.5095 51.3641 42.5505 51.6027 42.6077C51.9335 42.6854 52.2129 42.6897 52.4748 42.6897C53.0222 42.6897 53.5227 42.6121 53.9369 42.4627C54.3526 42.3117 54.7154 42.0494 55.0374 41.6949C55.3843 41.311 55.6023 40.9095 55.8102 40.3601C56.0165 39.8179 56.1937 39.144 56.3341 38.3587L57.6762 30.7587H59.6372C59.6372 30.7587 59.8025 30.7646 59.8363 30.5844L60.0587 29.3448C60.0734 29.2262 60.0236 29.1529 59.864 29.1529H57.96C57.9703 29.1105 58.0566 28.4393 58.2747 27.808C58.3684 27.5399 58.5439 27.3215 58.6918 27.172C58.8383 27.0255 59.0065 26.9215 59.191 26.8613C59.3797 26.7998 59.595 26.7705 59.8306 26.7705C60.0091 26.7705 60.1861 26.791 60.3193 26.8188C60.5036 26.8585 60.5753 26.879 60.6238 26.8937C60.8184 26.9523 60.8447 26.8951 60.8828 26.8014L61.338 25.5502C61.3848 25.4151 61.2692 25.3579 61.2283 25.3419ZM34.6257 38.2357C34.6257 38.3353 34.554 38.4159 34.4545 38.4159H32.8754C32.7758 38.4159 32.7056 38.3353 32.7056 38.2357V25.5118C32.7056 25.4123 32.7758 25.3317 32.8754 25.3317H34.4545C34.554 25.3317 34.6257 25.4123 34.6257 25.5118V38.2357Z" fill="white"/>
</g>
<defs>
<clipPath id="clip0_1526_5091">
<rect width="102.737" height="72" fill="white"/>
</clipPath>
</defs>
</svg>
